<?xml version="1.0" encoding="UTF-8" standalone="no"?>
<svg width="96" height="96" viewBox="0 0 96 96" xmlns="http://www.w3.org/2000/svg">
    <defs>
        <circle id="circle" cx="48" cy="48" r="37"/>
        <path id="border" d="M 83.5 38 A 37 37 0 1 1 63 14"/>
        <path id="checkmark" d="M 27.22 44.95 L 42.87 67.82 A 5 5 0 0 0 51.05 67.93 L 89.14 13.64 A 4.5 4.5 0 0 0 82 8.17 L 49.56 48.26 A 2 2 0 0 1 46.35 48.13 L 38.78 37.05 A 7 7 0 0 0 27.22 44.95 Z"/>
        <clipPath id="circle-clip">
            <use href="#circle"/>
        </clipPath>
        <linearGradient id="shade-grad" x1="0" y1="0" x2="0" y2="1">
            <stop offset="0" stop-color="#0000"/>
            <stop offset="1" stop-color="#0005"/>
        </linearGradient>
        <radialGradient id="shadow-grad">
            <stop offset="0.2" stop-color="#0003"/>
            <stop offset="1" stop-color="#0000"/>
        </radialGradient>
    </defs>
    <ellipse fill="url(#shadow-grad)" rx="40" ry="10" cx="48" cy="86"/>
    <use href="#circle" fill="#64DD17"/>
    <use href="#circle" fill="url(#shade-grad)"/>
    <use href="#border" fill="none" stroke="#FFF8" stroke-width="12" stroke-linecap="round" clip-path="url(#circle-clip)"/>
    <use href="#border" fill="none" stroke="#64DD17" stroke-width="4" stroke-linecap="round"/>
    <use href="#border" fill="none" stroke="#0006" stroke-width="4" stroke-linecap="round"/>
    <use href="#checkmark" fill="#64DD17"/>
    <use href="#checkmark" fill="#000A"/>
</svg>