<?xml version="1.0" encoding="UTF-8" standalone="no"?>
<svg width="96" height="96" viewBox="0 0 96 96" xmlns="http://www.w3.org/2000/svg">
    <defs>
        <path id="page" d="M 26 86 A 8 8 0 0 1 18 78 V 18 A 8 8 0 0 1 26 10 H 50 L 78 38 V 86 Z"/>
        <path id="fold" d="M 48 10.7 V 32 A 8 8 0 0 0 56 40 H 77.3"/>
        <circle id="circle" cx="70" cy="70" r="19"/>
        <clipPath id="page-clip">
            <use href="#page"/>
        </clipPath>
        <clipPath id="fold-clip">
            <use href="#fold"/>
        </clipPath>
        <clipPath id="circle-clip">
            <use href="#circle"/>
        </clipPath>
        <linearGradient id="shade-grad" x1="0" y1="0" x2="0" y2="1">
            <stop offset="0" stop-color="#0000"/>
            <stop offset="1" stop-color="#0005"/>
        </linearGradient>
        <radialGradient id="shadow-grad">
            <stop offset="0.2" stop-color="#0003"/>
            <stop offset="1" stop-color="#0000"/>
        </radialGradient>
    </defs>
    <ellipse fill="url(#shadow-grad)" rx="40" ry="10" cx="48" cy="86"/>
    <use href="#page" fill="lightgrey"/>
    <use href="#page" fill="url(#shade-grad)"/>
    <use href="#page" fill="none" stroke="#FFF6" stroke-width="12" clip-path="url(#page-clip)"/>
    <use href="#page" fill="none" stroke="dimgrey" stroke-width="4"/>
    <use href="#fold" fill="darkgrey"/>
    <use href="#fold" fill="url(#shade-grad)"/>
    <use href="#fold" fill="none" stroke="#FFF6" stroke-width="12" clip-path="url(#fold-clip)"/>
    <use href="#fold" fill="none" stroke="dimgrey" stroke-width="4"/>
    <use href="#circle" fill="#64DD17"/>
    <use href="#circle" fill="url(#shade-grad)"/>
    <use href="#circle" fill="none" stroke="#FFF6" stroke-width="9" clip-path="url(#circle-clip)"/>
    <use href="#circle" fill="none" stroke="#64DD17" stroke-width="3"/>
    <use href="#circle" fill="none" stroke="#0006" stroke-width="3"/>
    <line stroke="#64DD17" stroke-width="4" stroke-linecap="round" x1="62" y1="70" x2="78" y2="70"/>
    <line stroke="#000A" stroke-width="4" stroke-linecap="round" x1="62" y1="70" x2="78" y2="70"/>
    <line stroke="#64DD17" stroke-width="4" stroke-linecap="round" x1="70" y1="62" x2="70" y2="78"/>
    <line stroke="#000A" stroke-width="4" stroke-linecap="round" x1="70" y1="62" x2="70" y2="78"/>
</svg>