<?xml version="1.0" encoding="UTF-8" standalone="no"?>
<svg width="96" height="96" viewBox="0 0 96 96" xmlns="http://www.w3.org/2000/svg">
    <defs>
        <path id="disk" d="M 24 80 A 8 8 0 0 1 16 72 V 24 A 8 8 0 0 1 24 16 H 68 L 80 28 V 72 A 8 8 0 0 1 72 80 Z"/>
        <path id="label" d="M 28 80 V 60 A 8 8 0 0 1 36 52 H 60 A 8 8 0 0 1 68 60 V 80 Z"/>
        <path id="shutter" d="M 28 16 V 28 A 8 8 0 0 0 36 36 H 56 A 8 8 0 0 0 64 28 V 16 Z"/>
        <clipPath id="disk-clip">
            <use href="#disk"/>
        </clipPath>
        <clipPath id="label-clip">
            <use href="#label"/>
        </clipPath>
        <clipPath id="shutter-clip">
            <use href="#shutter"/>
        </clipPath>
        <linearGradient id="shade-grad" x1="0" y1="0" x2="0" y2="1">
            <stop offset="0" stop-color="#0000"/>
            <stop offset="1" stop-color="#0005"/>
        </linearGradient>
        <radialGradient id="shadow-grad">
            <stop offset="0.2" stop-color="#0003"/>
            <stop offset="1" stop-color="#0000"/>
        </radialGradient>
    </defs>
    <ellipse fill="url(#shadow-grad)" rx="40" ry="10" cx="48" cy="86"/>
    <use href="#disk" fill="deepskyblue"/>
    <use href="#disk" fill="url(#shade-grad)"/>
    <use href="#disk" fill="none" stroke="#FFF6" stroke-width="12" clip-path="url(#disk-clip)"/>
    <use href="#disk" fill="none" stroke="deepskyblue" stroke-width="4"/>
    <use href="#disk" fill="none" stroke="#0006" stroke-width="4"/>
    <use href="#label" fill="gainsboro"/>
    <use href="#label" fill="url(#shade-grad)"/>
    <use href="#label" fill="none" stroke="#FFF6" stroke-width="12" clip-path="url(#label-clip)"/>
    <use href="#label" fill="none" stroke="dimgrey" stroke-width="4"/>
    <use href="#shutter" fill="gainsboro"/>
    <use href="#shutter" fill="url(#shade-grad)"/>
    <use href="#shutter" fill="none" stroke="#FFF6" stroke-width="12" clip-path="url(#shutter-clip)"/>
    <use href="#shutter" fill="none" stroke="dimgrey" stroke-width="4"/>
    <line stroke="dimgrey" stroke-width="2" stroke-linecap="round" x1="38" y1="62" x2="54" y2="62"/>
    <line stroke="dimgrey" stroke-width="2" stroke-linecap="round" x1="38" y1="66" x2="54" y2="66"/>
    <line stroke="dimgrey" stroke-width="2" stroke-linecap="round" x1="38" y1="70" x2="54" y2="70"/>
</svg>