<?xml version="1.0" encoding="UTF-8" standalone="no"?>
<svg width="96" height="96" viewBox="0 0 96 96" xmlns="http://www.w3.org/2000/svg">
    <path fill="black" d="M 32 55 v -7 q 0 -3 3 -3 h 8 v -3 q 0 -4 4 -4 q 4 0 4 4 v 3 h 8 q 3 0 3 3 V 75 H 52 v -3 q 0 -5 -5 -5 q -5 0 -5 5 v 3 h -7 q -3 0 -3 -3 v -7 h 3 q 5 0 5 -5 q 0 -5 -5 -5 z"/>
    <path fill="none" stroke="black" stroke-width="7" d="M 23.5 11.5 Q 19.5 11.5 19.5 15.5 V 80.5 Q 19.5 84.5 23.5 84.5 H 72.5 Q 76.5 84.5 76.5 80.5 V 34 L 54 11.5 Z"/>
    <path fill="black" d="M 52.5 14.5 V 35.5 H 73.5 Z"/>
    <circle fill="black" cx="70" cy="70" r="21"/>
    <circle fill="green" cx="70" cy="70" r="17"/>
    <rect fill="black" width="4" height="20" x="68" y="60"/>
    <rect fill="black" width="20" height="4" x="60" y="68"/>
</svg>