<?xml version="1.0" encoding="UTF-8" standalone="no"?>
<svg
        version="1.0"
        width="600.000000pt"
        height="302.000000pt"
        viewBox="0 0 600.000000 302.000000"
        preserveAspectRatio="xMidYMid meet"
        id="svg472"
        sodipodi:docname="LEGUP.svg"
        inkscape:version="1.2.2 (732a01da63, 2022-12-09)"
        xmlns:inkscape="http://www.inkscape.org/namespaces/inkscape"
        xmlns:sodipodi="http://sodipodi.sourceforge.net/DTD/sodipodi-0.dtd"
        xmlns="http://www.w3.org/2000/svg"
        xmlns:svg="http://www.w3.org/2000/svg">
    <defs
            id="defs476"/>
    <sodipodi:namedview
            id="namedview474"
            pagecolor="#505050"
            bordercolor="#eeeeee"
            borderopacity="1"
            inkscape:showpageshadow="0"
            inkscape:pageopacity="0"
            inkscape:pagecheckerboard="0"
            inkscape:deskcolor="#505050"
            inkscape:document-units="pt"
            showgrid="false"
            inkscape:zoom="2.3157748"
            inkscape:cx="374.38874"
            inkscape:cy="183.7398"
            inkscape:window-width="2048"
            inkscape:window-height="1123"
            inkscape:window-x="-9"
            inkscape:window-y="-9"
            inkscape:window-maximized="1"
            inkscape:current-layer="g470"/>
    <g
            transform="translate(0.000000,302.000000) scale(0.100000,-0.100000)"
            fill="#000000"
            stroke="none"
            id="g470">
        <path
                id="path334"
                d="m 4076.1035,2501.7383 c -0.869,-0.033 -1.7384,-0.055 -2.6074,-0.088 0.8276,-0.1468 1.7018,-0.093 2.6074,0.088 z"/>
        <path
                d="m 270,2360 2,-1628 752,4 -4,354 H 610 V 2360 Z M 570,1050 H 990 V 780 H 310 v 1560 h 260 z"
                id="path364"
                sodipodi:nodetypes="cccccccccccccc"/>
        <path
                d="M1082 2358 c-17 -17 -17 -1609 0 -1626 17 -17 809 -17 826 0 15 15 17 301 2 329 -10 18 -24 19 -250 19 l-240 0 0 150 0 150 198 0 c141 0 201 3 210 12 8 8 12 58 12 160 0 201 16 188 -230 188 l-190 0 0 135 0 135 233 0 c168 0 236 3 245 12 15 15 17 301 2 329 -10 18 -25 19 -408 19 -296 0 -401 -3 -410 -12z m786 -150 l-3 -133 -242 -3 -243 -2 0 -179 c0 -154 2 -180 16 -185 9 -3 103 -6 210 -6 l194 0 0 -135 0 -135 -210 0 -210 0 0 -190 0 -190 250 0 251 0 -3 -132 -3 -133 -380 0 -380 0 -6 265 c-3 146 -4 496 -1 778 l5 512 379 0 379 0 -3 -132z"
                id="path372"/>
        <path
                d="m 2577,2354 c -371,-67 -616,-348 -643,-738 -30,-425 238,-795 636,-876 129,-27 529,-30 554,-4 14,14 16,71 16,479 0,487 -2,510 -44,521 -12,3 -160,4 -329,2 -260,-3 -309,-5 -317,-18 -6,-8 -9,-85 -7,-175 l 2,-160 178,-3 177,-2 v -151 -151 l -77,7 c -192,17 -325,102 -394,249 -55,117 -61,239 -19,362 41,119 124,209 242,264 81,37 161,50 325,50 121,0 133,2 143,19 5,11 10,82 10,158 0,195 13,183 -203,182 -100,0 -205,-7 -250,-15 z m 407,-31 c 4,-9 4,-70 0,-135 l -7,-118 h -137 c -255,0 -405,-65 -508,-220 -60,-90 -84,-173 -84,-295 0,-160 39.9517,-267.6193 152,-369 148.4013,-121.0415 272.2062,-136 440,-136 v 190 190 l -182,2 -183,3 -3,60 c -2,33 -1,93 3,133 l 7,72 h 309 309 v -263 c 0,-145 -3,-352 -7,-460 l -6,-197 h -188 c -218,0 -312,11 -419,49 -115,41 -185,86 -280,181 -101,101 -141,165 -189,303 -34,99 -35,107 -35,247 0,109 4,162 18,215 69,263 246,447 502,524 95,29 173,38 340,40 125,1 143,-1 148,-16 z"
                id="path384"
                sodipodi:nodetypes="ccccscccccccccccccscscccccscscccccccccccsccscscscccc"/>
        <path
                d="M3232 2358 c-9 -9 -12 -140 -12 -527 0 -599 4 -635 84 -796 72 -145 173 -233 321 -281 106 -35 299 -44 425 -20 234 44 391 197 462 452 21 76 22 98 26 611 2 372 0 538 -8 553 -10 19 -20 20 -165 20 -112 0 -156 -3 -162 -12 -4 -7 -10 -249 -13 -538 -6 -590 -7 -597 -80 -670 -50 -50 -109 -65 -245 -64 -150 1 -211 28 -255 114 -36 69 -40 142 -40 642 0 318 -4 496 -10 509 -10 17 -23 19 -163 19 -106 0 -157 -4 -165 -12z m300 -535 c4 -508 4 -519 27 -586 29 -87 84 -147 156 -168 63 -18 264 -18 323 -1 49 15 115 70 139 116 43 82 46 120 50 649 l4 507 135 0 135 0 -3 -527 c-4 -590 -3 -576 -78 -728 -98 -200 -248 -290 -500 -301 -225 -11 -375 39 -490 163 -96 102 -150 231 -169 406 -5 40 -6 279 -3 530 l5 457 133 0 133 0 3 -517z"
                id="path392"/>
        <path
                d="M4642 2358 c-17 -17 -17 -1609 0 -1626 17 -17 309 -17 326 0 9 9 12 72 12 220 l0 208 153 0 c244 0 370 43 498 170 115 114 165 248 163 440 -1 95 -6 129 -27 196 -66 202 -225 345 -432 389 -92 19 -674 22 -693 3z m713 -40 c78 -23 135 -51 193 -96 255 -192 282 -621 55 -849 -59 -59 -184 -124 -271 -142 -29 -6 -124 -11 -210 -11 -86 0 -163 -4 -169 -8 -9 -6 -13 -65 -15 -217 l-3 -210 -130 0 -130 0 -6 265 c-3 146 -4 496 -1 778 l5 514 316 -5 c239 -3 328 -8 366 -19z"
                id="path406"/>
        <path
                d="M4940 1780 l0 -292 163 4 c149 3 166 5 217 29 77 36 115 71 146 135 55 113 26 258 -68 338 -66 57 -112 68 -295 74 l-163 4 0 -292z m360 203 c100 -44 153 -122 153 -222 0 -69 -27 -126 -83 -174 -58 -49 -131 -67 -273 -67 l-117 0 0 246 0 247 138 -5 c108 -4 147 -9 182 -25z"
                id="path418"/>
    </g>
</svg>
